<mxfile host="app.diagrams.net" modified="2023-11-06T08:37:38.665Z" agent="Mozilla/5.0 (Macintosh; Intel Mac OS X 10_15_7) AppleWebKit/537.36 (KHTML, like Gecko) Chrome/118.0.0.0 Safari/537.36 Edg/118.0.2088.76" etag="6BUDSUeX2tKGmERyTusp" version="22.0.8" type="github">
  <diagram name="第 1 页" id="w511mwxsSNAG5VO2M3F0">
    <mxGraphModel dx="1548" dy="838" grid="1" gridSize="10" guides="1" tooltips="1" connect="1" arrows="1" fold="1" page="1" pageScale="1" pageWidth="2339" pageHeight="3300" math="1" shadow="0">
      <root>
        <mxCell id="0" />
        <mxCell id="1" parent="0" />
        <mxCell id="czjufTqfxkIo00JqZaiN-1" style="edgeStyle=none;shape=connector;rounded=0;orthogonalLoop=1;jettySize=auto;html=1;exitX=0.25;exitY=1;exitDx=0;exitDy=0;labelBackgroundColor=default;strokeColor=default;align=center;verticalAlign=middle;fontFamily=Times New Roman;fontSize=30;fontColor=default;endArrow=none;endFill=0;strokeWidth=4;" edge="1" parent="1">
          <mxGeometry relative="1" as="geometry">
            <mxPoint x="549" y="365.03" as="sourcePoint" />
            <mxPoint x="549" y="365.03" as="targetPoint" />
          </mxGeometry>
        </mxCell>
        <mxCell id="czjufTqfxkIo00JqZaiN-16" value="A" style="ellipse;whiteSpace=wrap;html=1;aspect=fixed;fontFamily=Times New Roman;fontSize=30;strokeWidth=4;" vertex="1" parent="1">
          <mxGeometry x="685.0935353535353" y="115.54216216216217" width="50" height="50" as="geometry" />
        </mxCell>
        <mxCell id="czjufTqfxkIo00JqZaiN-17" value="B" style="ellipse;whiteSpace=wrap;html=1;aspect=fixed;fontFamily=Times New Roman;fontSize=30;strokeWidth=2;" vertex="1" parent="1">
          <mxGeometry x="561.3045454545454" y="271.08405405405404" width="50" height="50" as="geometry" />
        </mxCell>
        <mxCell id="czjufTqfxkIo00JqZaiN-18" style="edgeStyle=none;shape=connector;rounded=0;orthogonalLoop=1;jettySize=auto;html=1;exitX=0.5;exitY=1;exitDx=0;exitDy=0;entryX=0.5;entryY=0;entryDx=0;entryDy=0;labelBackgroundColor=default;strokeColor=default;align=center;verticalAlign=middle;fontFamily=Times New Roman;fontSize=30;fontColor=default;endArrow=none;endFill=0;strokeWidth=4;" edge="1" parent="1" source="czjufTqfxkIo00JqZaiN-16" target="czjufTqfxkIo00JqZaiN-17">
          <mxGeometry relative="1" as="geometry" />
        </mxCell>
        <mxCell id="czjufTqfxkIo00JqZaiN-19" value="50" style="edgeLabel;html=1;align=center;verticalAlign=middle;resizable=0;points=[];fontSize=22;fontFamily=Times New Roman;fontColor=default;labelBackgroundColor=default;rotation=0;" vertex="1" connectable="0" parent="czjufTqfxkIo00JqZaiN-18">
          <mxGeometry x="-0.0913" y="-4" relative="1" as="geometry">
            <mxPoint x="-5" y="7" as="offset" />
          </mxGeometry>
        </mxCell>
        <mxCell id="czjufTqfxkIo00JqZaiN-20" value="B" style="ellipse;whiteSpace=wrap;html=1;aspect=fixed;fontFamily=Times New Roman;fontSize=30;strokeWidth=4;" vertex="1" parent="1">
          <mxGeometry x="1063.6248484848484" y="272.32405405405405" width="50" height="50" as="geometry" />
        </mxCell>
        <mxCell id="czjufTqfxkIo00JqZaiN-21" style="edgeStyle=none;shape=connector;rounded=0;orthogonalLoop=1;jettySize=auto;html=1;exitX=0.5;exitY=1;exitDx=0;exitDy=0;entryX=0.5;entryY=0;entryDx=0;entryDy=0;labelBackgroundColor=default;strokeColor=default;align=center;verticalAlign=middle;fontFamily=Times New Roman;fontSize=30;fontColor=default;endArrow=none;endFill=0;strokeWidth=4;" edge="1" parent="1" source="czjufTqfxkIo00JqZaiN-16" target="czjufTqfxkIo00JqZaiN-20">
          <mxGeometry relative="1" as="geometry" />
        </mxCell>
        <mxCell id="czjufTqfxkIo00JqZaiN-22" value="60" style="edgeLabel;html=1;align=center;verticalAlign=middle;resizable=0;points=[];fontSize=22;fontFamily=Times New Roman;fontColor=default;labelBackgroundColor=default;rotation=0;" vertex="1" connectable="0" parent="czjufTqfxkIo00JqZaiN-21">
          <mxGeometry x="-0.6409" y="1" relative="1" as="geometry">
            <mxPoint x="44" y="13" as="offset" />
          </mxGeometry>
        </mxCell>
        <mxCell id="czjufTqfxkIo00JqZaiN-23" style="edgeStyle=none;shape=connector;rounded=0;orthogonalLoop=1;jettySize=auto;html=1;exitX=1;exitY=0.5;exitDx=0;exitDy=0;labelBackgroundColor=default;strokeColor=#000000;align=center;verticalAlign=middle;fontFamily=Times New Roman;fontSize=30;fontColor=default;endArrow=none;endFill=0;strokeWidth=4;" edge="1" parent="1" source="czjufTqfxkIo00JqZaiN-25" target="czjufTqfxkIo00JqZaiN-20">
          <mxGeometry relative="1" as="geometry" />
        </mxCell>
        <mxCell id="czjufTqfxkIo00JqZaiN-24" value="&lt;font style=&quot;font-size: 22px;&quot;&gt;60&lt;/font&gt;" style="edgeLabel;html=1;align=center;verticalAlign=middle;resizable=0;points=[];fontSize=22;fontFamily=Times New Roman;fontColor=#000000;labelBackgroundColor=default;" vertex="1" connectable="0" parent="czjufTqfxkIo00JqZaiN-23">
          <mxGeometry x="-0.1325" y="1" relative="1" as="geometry">
            <mxPoint x="13" y="-3" as="offset" />
          </mxGeometry>
        </mxCell>
        <mxCell id="czjufTqfxkIo00JqZaiN-25" value="A" style="ellipse;whiteSpace=wrap;html=1;aspect=fixed;fontFamily=Times New Roman;fontSize=30;strokeWidth=4;" vertex="1" parent="1">
          <mxGeometry x="822.969696969697" y="271.08405405405404" width="50" height="50" as="geometry" />
        </mxCell>
        <mxCell id="czjufTqfxkIo00JqZaiN-26" style="edgeStyle=none;shape=connector;rounded=0;orthogonalLoop=1;jettySize=auto;html=1;exitX=0.5;exitY=1;exitDx=0;exitDy=0;entryX=0.5;entryY=0;entryDx=0;entryDy=0;labelBackgroundColor=default;strokeColor=default;align=center;verticalAlign=middle;fontFamily=Times New Roman;fontSize=30;fontColor=default;endArrow=none;endFill=0;strokeWidth=4;" edge="1" parent="1" source="czjufTqfxkIo00JqZaiN-16" target="czjufTqfxkIo00JqZaiN-25">
          <mxGeometry relative="1" as="geometry" />
        </mxCell>
        <mxCell id="czjufTqfxkIo00JqZaiN-27" value="60" style="edgeLabel;html=1;align=center;verticalAlign=middle;resizable=0;points=[];fontSize=22;fontFamily=Times New Roman;fontColor=default;rotation=0;labelBackgroundColor=default;" vertex="1" connectable="0" parent="czjufTqfxkIo00JqZaiN-26">
          <mxGeometry x="-0.1" y="2" relative="1" as="geometry">
            <mxPoint x="-7" as="offset" />
          </mxGeometry>
        </mxCell>
        <mxCell id="czjufTqfxkIo00JqZaiN-28" style="edgeStyle=none;shape=connector;rounded=0;orthogonalLoop=1;jettySize=auto;html=1;exitX=1;exitY=0.5;exitDx=0;exitDy=0;entryX=0;entryY=0.5;entryDx=0;entryDy=0;labelBackgroundColor=default;strokeColor=#ff0000;align=center;verticalAlign=middle;fontFamily=Times New Roman;fontSize=30;fontColor=default;endArrow=none;endFill=0;strokeWidth=4;dashed=1;" edge="1" parent="1" source="czjufTqfxkIo00JqZaiN-17" target="czjufTqfxkIo00JqZaiN-25">
          <mxGeometry relative="1" as="geometry" />
        </mxCell>
        <mxCell id="czjufTqfxkIo00JqZaiN-29" value="55" style="edgeLabel;html=1;align=center;verticalAlign=middle;resizable=0;points=[];fontSize=22;fontFamily=Times New Roman;fontColor=#ff0000;labelBackgroundColor=default;" vertex="1" connectable="0" parent="czjufTqfxkIo00JqZaiN-28">
          <mxGeometry x="0.0211" y="1" relative="1" as="geometry">
            <mxPoint x="-9" y="-3" as="offset" />
          </mxGeometry>
        </mxCell>
        <mxCell id="czjufTqfxkIo00JqZaiN-30" value="&amp;nbsp;Dynamic Graph G&amp;nbsp;" style="text;html=1;strokeColor=none;fillColor=none;align=center;verticalAlign=middle;whiteSpace=wrap;rounded=0;fontSize=30;fontFamily=Times New Roman;fontColor=default;" vertex="1" parent="1">
          <mxGeometry x="732.3145454545454" y="557.0321621621621" width="272.7272727272727" height="24.864864864864863" as="geometry" />
        </mxCell>
        <mxCell id="czjufTqfxkIo00JqZaiN-31" style="edgeStyle=none;shape=connector;rounded=0;orthogonalLoop=1;jettySize=auto;html=1;exitX=0.5;exitY=1;exitDx=0;exitDy=0;entryX=0.5;entryY=0;entryDx=0;entryDy=0;labelBackgroundColor=default;strokeColor=default;align=center;verticalAlign=middle;fontFamily=Times New Roman;fontSize=30;fontColor=default;endArrow=none;endFill=0;strokeWidth=4;" edge="1" parent="1" source="czjufTqfxkIo00JqZaiN-35" target="czjufTqfxkIo00JqZaiN-25">
          <mxGeometry relative="1" as="geometry" />
        </mxCell>
        <mxCell id="czjufTqfxkIo00JqZaiN-32" value="1" style="edgeLabel;html=1;align=center;verticalAlign=middle;resizable=0;points=[];fontSize=22;fontFamily=Times New Roman;fontColor=default;labelBackgroundColor=default;" vertex="1" connectable="0" parent="czjufTqfxkIo00JqZaiN-31">
          <mxGeometry x="-0.5049" y="1" relative="1" as="geometry">
            <mxPoint x="-3" y="-7" as="offset" />
          </mxGeometry>
        </mxCell>
        <mxCell id="czjufTqfxkIo00JqZaiN-33" style="edgeStyle=none;shape=connector;rounded=0;orthogonalLoop=1;jettySize=auto;html=1;exitX=0.5;exitY=1;exitDx=0;exitDy=0;entryX=0.5;entryY=0;entryDx=0;entryDy=0;labelBackgroundColor=default;strokeColor=default;align=center;verticalAlign=middle;fontFamily=Times New Roman;fontSize=30;fontColor=default;endArrow=none;endFill=0;strokeWidth=4;" edge="1" parent="1" source="czjufTqfxkIo00JqZaiN-35" target="czjufTqfxkIo00JqZaiN-20">
          <mxGeometry relative="1" as="geometry" />
        </mxCell>
        <mxCell id="czjufTqfxkIo00JqZaiN-34" value="1" style="edgeLabel;html=1;align=center;verticalAlign=middle;resizable=0;points=[];fontSize=22;fontFamily=Times New Roman;fontColor=default;labelBackgroundColor=default;" vertex="1" connectable="0" parent="czjufTqfxkIo00JqZaiN-33">
          <mxGeometry x="-0.7554" y="1" relative="1" as="geometry">
            <mxPoint x="1" y="-1" as="offset" />
          </mxGeometry>
        </mxCell>
        <mxCell id="czjufTqfxkIo00JqZaiN-35" value="A" style="ellipse;whiteSpace=wrap;html=1;aspect=fixed;fontFamily=Times New Roman;fontSize=30;strokeWidth=4;" vertex="1" parent="1">
          <mxGeometry x="856.8120202020202" y="104.32216216216217" width="50" height="50" as="geometry" />
        </mxCell>
        <mxCell id="czjufTqfxkIo00JqZaiN-36" style="edgeStyle=none;shape=connector;rounded=0;orthogonalLoop=1;jettySize=auto;html=1;exitX=0.5;exitY=1;exitDx=0;exitDy=0;entryX=0.5;entryY=0;entryDx=0;entryDy=0;labelBackgroundColor=default;strokeColor=default;align=center;verticalAlign=middle;fontFamily=Times New Roman;fontSize=30;fontColor=default;endArrow=none;endFill=0;strokeWidth=4;" edge="1" parent="1" source="czjufTqfxkIo00JqZaiN-40" target="czjufTqfxkIo00JqZaiN-25">
          <mxGeometry relative="1" as="geometry" />
        </mxCell>
        <mxCell id="czjufTqfxkIo00JqZaiN-37" value="1" style="edgeLabel;html=1;align=center;verticalAlign=middle;resizable=0;points=[];fontSize=22;fontFamily=Times New Roman;fontColor=default;labelBackgroundColor=default;" vertex="1" connectable="0" parent="czjufTqfxkIo00JqZaiN-36">
          <mxGeometry x="-0.2845" y="-1" relative="1" as="geometry">
            <mxPoint x="26" y="-27" as="offset" />
          </mxGeometry>
        </mxCell>
        <mxCell id="czjufTqfxkIo00JqZaiN-38" style="edgeStyle=none;shape=connector;rounded=0;orthogonalLoop=1;jettySize=auto;html=1;exitX=0.5;exitY=1;exitDx=0;exitDy=0;entryX=0.5;entryY=0;entryDx=0;entryDy=0;labelBackgroundColor=default;strokeColor=default;align=center;verticalAlign=middle;fontFamily=Times New Roman;fontSize=30;fontColor=default;endArrow=none;endFill=0;strokeWidth=4;" edge="1" parent="1" source="czjufTqfxkIo00JqZaiN-40" target="czjufTqfxkIo00JqZaiN-20">
          <mxGeometry relative="1" as="geometry" />
        </mxCell>
        <mxCell id="czjufTqfxkIo00JqZaiN-39" value="1" style="edgeLabel;html=1;align=center;verticalAlign=middle;resizable=0;points=[];fontSize=22;fontFamily=Times New Roman;fontColor=default;labelBackgroundColor=default;" vertex="1" connectable="0" parent="czjufTqfxkIo00JqZaiN-38">
          <mxGeometry x="-0.7183" y="2" relative="1" as="geometry">
            <mxPoint x="2" y="-4" as="offset" />
          </mxGeometry>
        </mxCell>
        <mxCell id="czjufTqfxkIo00JqZaiN-40" value="A" style="ellipse;whiteSpace=wrap;html=1;aspect=fixed;fontFamily=Times New Roman;fontSize=30;strokeWidth=4;" vertex="1" parent="1">
          <mxGeometry x="948.8970707070707" y="107.03216216216217" width="50" height="50" as="geometry" />
        </mxCell>
        <mxCell id="czjufTqfxkIo00JqZaiN-41" style="edgeStyle=none;shape=connector;rounded=0;orthogonalLoop=1;jettySize=auto;html=1;exitX=0.5;exitY=1;exitDx=0;exitDy=0;entryX=0.5;entryY=0;entryDx=0;entryDy=0;labelBackgroundColor=default;strokeColor=default;align=center;verticalAlign=middle;fontFamily=Times New Roman;fontSize=30;fontColor=default;endArrow=none;endFill=0;strokeWidth=4;" edge="1" parent="1" source="czjufTqfxkIo00JqZaiN-45" target="czjufTqfxkIo00JqZaiN-25">
          <mxGeometry relative="1" as="geometry" />
        </mxCell>
        <mxCell id="czjufTqfxkIo00JqZaiN-42" value="1" style="edgeLabel;html=1;align=center;verticalAlign=middle;resizable=0;points=[];fontSize=22;fontFamily=Times New Roman;fontColor=default;labelBackgroundColor=default;" vertex="1" connectable="0" parent="czjufTqfxkIo00JqZaiN-41">
          <mxGeometry x="-0.7186" relative="1" as="geometry">
            <mxPoint x="-3" y="-6" as="offset" />
          </mxGeometry>
        </mxCell>
        <mxCell id="czjufTqfxkIo00JqZaiN-43" style="edgeStyle=none;shape=connector;rounded=0;orthogonalLoop=1;jettySize=auto;html=1;exitX=0.5;exitY=1;exitDx=0;exitDy=0;entryX=0.5;entryY=0;entryDx=0;entryDy=0;labelBackgroundColor=default;strokeColor=default;align=center;verticalAlign=middle;fontFamily=Times New Roman;fontSize=30;fontColor=default;endArrow=none;endFill=0;strokeWidth=4;" edge="1" parent="1" source="czjufTqfxkIo00JqZaiN-45" target="czjufTqfxkIo00JqZaiN-20">
          <mxGeometry relative="1" as="geometry" />
        </mxCell>
        <mxCell id="czjufTqfxkIo00JqZaiN-44" value="1" style="edgeLabel;html=1;align=center;verticalAlign=middle;resizable=0;points=[];fontSize=22;fontFamily=Times New Roman;fontColor=default;labelBackgroundColor=default;" vertex="1" connectable="0" parent="czjufTqfxkIo00JqZaiN-43">
          <mxGeometry x="-0.4949" y="2" relative="1" as="geometry">
            <mxPoint x="-6" y="-5" as="offset" />
          </mxGeometry>
        </mxCell>
        <mxCell id="czjufTqfxkIo00JqZaiN-45" value="A" style="ellipse;whiteSpace=wrap;html=1;aspect=fixed;fontFamily=Times New Roman;fontSize=30;strokeWidth=4;" vertex="1" parent="1">
          <mxGeometry x="1063.6241414141414" y="107.03216216216217" width="50" height="50" as="geometry" />
        </mxCell>
        <mxCell id="czjufTqfxkIo00JqZaiN-46" value="......" style="text;html=1;strokeColor=none;fillColor=none;align=center;verticalAlign=middle;whiteSpace=wrap;rounded=0;fontSize=30;fontFamily=Times New Roman;fontColor=default;" vertex="1" parent="1">
          <mxGeometry x="1008.3890909090909" y="113.38216216216217" width="60.60606060606062" height="37.29729729729729" as="geometry" />
        </mxCell>
        <mxCell id="czjufTqfxkIo00JqZaiN-47" value="" style="shape=curlyBracket;whiteSpace=wrap;html=1;rounded=1;labelPosition=left;verticalLabelPosition=middle;align=right;verticalAlign=middle;fontFamily=Times New Roman;fontSize=30;fontColor=default;rotation=90;size=0.5;strokeWidth=4;" vertex="1" parent="1">
          <mxGeometry x="958.39" y="-10" width="20.39" height="194.94" as="geometry" />
        </mxCell>
        <mxCell id="czjufTqfxkIo00JqZaiN-48" value="1000" style="text;html=1;strokeColor=none;fillColor=none;align=center;verticalAlign=middle;whiteSpace=wrap;rounded=0;fontSize=22;fontFamily=Times New Roman;fontColor=default;" vertex="1" parent="1">
          <mxGeometry x="938.2865656565657" y="47.03" width="60.60606060606062" height="37.29729729729729" as="geometry" />
        </mxCell>
        <mxCell id="czjufTqfxkIo00JqZaiN-49" value="&lt;br style=&quot;font-size: 30px;&quot;&gt;$$v_{a_4}$$" style="text;html=1;strokeColor=none;fillColor=none;align=center;verticalAlign=middle;whiteSpace=wrap;rounded=0;fontSize=30;fontFamily=Times New Roman;fontColor=default;" vertex="1" parent="1">
          <mxGeometry x="803.2076767676767" y="69.73486486486487" width="60.60606060606062" height="37.29729729729729" as="geometry" />
        </mxCell>
        <mxCell id="czjufTqfxkIo00JqZaiN-50" style="edgeStyle=none;shape=connector;rounded=0;orthogonalLoop=1;jettySize=auto;html=1;exitX=0.5;exitY=1;exitDx=0;exitDy=0;labelBackgroundColor=default;strokeColor=default;align=center;verticalAlign=middle;fontFamily=Times New Roman;fontSize=30;fontColor=default;endArrow=none;endFill=0;strokeWidth=4;" edge="1" parent="1" source="czjufTqfxkIo00JqZaiN-49" target="czjufTqfxkIo00JqZaiN-49">
          <mxGeometry relative="1" as="geometry" />
        </mxCell>
        <mxCell id="czjufTqfxkIo00JqZaiN-51" value="&lt;br style=&quot;font-size: 30px;&quot;&gt;$$v_{a_5}$$" style="text;html=1;strokeColor=none;fillColor=none;align=center;verticalAlign=middle;whiteSpace=wrap;rounded=0;fontSize=30;fontFamily=Times New Roman;fontColor=default;" vertex="1" parent="1">
          <mxGeometry x="895.8130303030302" y="67.02486486486487" width="60.60606060606062" height="37.29729729729729" as="geometry" />
        </mxCell>
        <mxCell id="czjufTqfxkIo00JqZaiN-52" value="&lt;br style=&quot;font-size: 30px;&quot;&gt;$$v_{a_{1003}}$$" style="text;html=1;strokeColor=none;fillColor=none;align=center;verticalAlign=middle;whiteSpace=wrap;rounded=0;fontSize=30;fontFamily=Times New Roman;fontColor=default;" vertex="1" parent="1">
          <mxGeometry x="1002.0397979797979" y="67.02864864864864" width="60.60606060606062" height="37.29729729729729" as="geometry" />
        </mxCell>
        <mxCell id="czjufTqfxkIo00JqZaiN-53" value="C" style="ellipse;whiteSpace=wrap;html=1;aspect=fixed;fontFamily=Times New Roman;fontSize=30;strokeWidth=4;" vertex="1" parent="1">
          <mxGeometry x="606.9956565656565" y="437.96810810810814" width="49" height="49" as="geometry" />
        </mxCell>
        <mxCell id="czjufTqfxkIo00JqZaiN-54" style="rounded=0;orthogonalLoop=1;jettySize=auto;html=1;exitX=0.5;exitY=1;exitDx=0;exitDy=0;entryX=0.5;entryY=0;entryDx=0;entryDy=0;endArrow=none;endFill=0;fontFamily=Times New Roman;fontSize=30;strokeWidth=4;" edge="1" parent="1" source="czjufTqfxkIo00JqZaiN-17" target="czjufTqfxkIo00JqZaiN-53">
          <mxGeometry relative="1" as="geometry" />
        </mxCell>
        <mxCell id="czjufTqfxkIo00JqZaiN-55" value="68" style="edgeLabel;html=1;align=center;verticalAlign=middle;resizable=0;points=[];fontSize=22;fontFamily=Times New Roman;fontColor=default;labelBackgroundColor=default;" vertex="1" connectable="0" parent="czjufTqfxkIo00JqZaiN-54">
          <mxGeometry x="0.1311" y="-2" relative="1" as="geometry">
            <mxPoint x="-14" y="-23" as="offset" />
          </mxGeometry>
        </mxCell>
        <mxCell id="czjufTqfxkIo00JqZaiN-56" style="shape=connector;rounded=0;orthogonalLoop=1;jettySize=auto;html=1;exitX=0.5;exitY=1;exitDx=0;exitDy=0;entryX=0.5;entryY=0;entryDx=0;entryDy=0;labelBackgroundColor=default;strokeColor=default;align=center;verticalAlign=middle;fontFamily=Times New Roman;fontSize=30;fontColor=default;endArrow=none;endFill=0;strokeWidth=4;" edge="1" parent="1" source="czjufTqfxkIo00JqZaiN-25" target="czjufTqfxkIo00JqZaiN-53">
          <mxGeometry relative="1" as="geometry" />
        </mxCell>
        <mxCell id="czjufTqfxkIo00JqZaiN-57" value="&lt;font style=&quot;font-size: 22px;&quot;&gt;&lt;span style=&quot;font-size: 22px;&quot;&gt;59&lt;/span&gt;&lt;/font&gt;" style="edgeLabel;html=1;align=center;verticalAlign=middle;resizable=0;points=[];fontSize=22;fontFamily=Times New Roman;fontColor=default;labelBackgroundColor=default;" vertex="1" connectable="0" parent="czjufTqfxkIo00JqZaiN-56">
          <mxGeometry x="-0.0133" y="-2" relative="1" as="geometry">
            <mxPoint x="43" y="-31" as="offset" />
          </mxGeometry>
        </mxCell>
        <mxCell id="czjufTqfxkIo00JqZaiN-58" value="C" style="ellipse;whiteSpace=wrap;html=1;aspect=fixed;fontFamily=Times New Roman;fontSize=30;perimeterSpacing=1;strokeWidth=4;" vertex="1" parent="1">
          <mxGeometry x="696.6009090909091" y="437.96810810810814" width="49" height="49" as="geometry" />
        </mxCell>
        <mxCell id="czjufTqfxkIo00JqZaiN-59" style="edgeStyle=none;shape=connector;rounded=0;orthogonalLoop=1;jettySize=auto;html=1;exitX=0.5;exitY=1;exitDx=0;exitDy=0;entryX=0.5;entryY=0;entryDx=0;entryDy=0;labelBackgroundColor=default;strokeColor=default;align=center;verticalAlign=middle;fontFamily=Times New Roman;fontSize=30;fontColor=default;endArrow=none;endFill=0;strokeWidth=4;" edge="1" parent="1" source="czjufTqfxkIo00JqZaiN-17" target="czjufTqfxkIo00JqZaiN-58">
          <mxGeometry relative="1" as="geometry" />
        </mxCell>
        <mxCell id="czjufTqfxkIo00JqZaiN-60" value="23" style="edgeLabel;html=1;align=center;verticalAlign=middle;resizable=0;points=[];fontSize=22;fontFamily=Times New Roman;fontColor=default;labelBackgroundColor=default;" vertex="1" connectable="0" parent="czjufTqfxkIo00JqZaiN-59">
          <mxGeometry x="0.0974" y="1" relative="1" as="geometry">
            <mxPoint x="-15" y="-7" as="offset" />
          </mxGeometry>
        </mxCell>
        <mxCell id="czjufTqfxkIo00JqZaiN-61" style="edgeStyle=none;shape=connector;rounded=0;orthogonalLoop=1;jettySize=auto;html=1;exitX=0.5;exitY=1;exitDx=0;exitDy=0;entryX=0.5;entryY=0;entryDx=0;entryDy=0;labelBackgroundColor=default;strokeColor=default;align=center;verticalAlign=middle;fontFamily=Times New Roman;fontSize=30;fontColor=default;endArrow=none;endFill=0;strokeWidth=4;" edge="1" parent="1" source="czjufTqfxkIo00JqZaiN-20" target="czjufTqfxkIo00JqZaiN-58">
          <mxGeometry relative="1" as="geometry" />
        </mxCell>
        <mxCell id="czjufTqfxkIo00JqZaiN-62" value="10" style="edgeLabel;html=1;align=center;verticalAlign=middle;resizable=0;points=[];fontSize=22;fontFamily=Times New Roman;fontColor=default;labelBackgroundColor=default;" vertex="1" connectable="0" parent="czjufTqfxkIo00JqZaiN-61">
          <mxGeometry x="0.2612" y="-1" relative="1" as="geometry">
            <mxPoint x="132" y="-48" as="offset" />
          </mxGeometry>
        </mxCell>
        <mxCell id="czjufTqfxkIo00JqZaiN-63" style="edgeStyle=none;shape=connector;rounded=0;orthogonalLoop=1;jettySize=auto;html=1;exitX=0.5;exitY=1;exitDx=0;exitDy=0;entryX=0.5;entryY=0;entryDx=0;entryDy=0;labelBackgroundColor=default;strokeColor=default;align=center;verticalAlign=middle;fontFamily=Times New Roman;fontSize=30;fontColor=default;endArrow=none;endFill=0;strokeWidth=4;" edge="1" parent="1" source="czjufTqfxkIo00JqZaiN-25" target="czjufTqfxkIo00JqZaiN-58">
          <mxGeometry relative="1" as="geometry" />
        </mxCell>
        <mxCell id="czjufTqfxkIo00JqZaiN-64" value="45" style="edgeLabel;html=1;align=center;verticalAlign=middle;resizable=0;points=[];fontSize=22;fontFamily=Times New Roman;fontColor=default;labelBackgroundColor=default;" vertex="1" connectable="0" parent="czjufTqfxkIo00JqZaiN-63">
          <mxGeometry x="-0.048" y="2" relative="1" as="geometry">
            <mxPoint x="-11" y="9" as="offset" />
          </mxGeometry>
        </mxCell>
        <mxCell id="czjufTqfxkIo00JqZaiN-65" value="C" style="ellipse;whiteSpace=wrap;html=1;aspect=fixed;fontFamily=Times New Roman;fontSize=30;strokeWidth=4;" vertex="1" parent="1">
          <mxGeometry x="991.7780808080809" y="437.1781081081082" width="49" height="49" as="geometry" />
        </mxCell>
        <mxCell id="czjufTqfxkIo00JqZaiN-66" style="edgeStyle=none;shape=connector;rounded=0;orthogonalLoop=1;jettySize=auto;html=1;exitX=0.5;exitY=1;exitDx=0;exitDy=0;entryX=0.5;entryY=0;entryDx=0;entryDy=0;labelBackgroundColor=default;strokeColor=default;align=center;verticalAlign=middle;fontFamily=Times New Roman;fontSize=30;fontColor=default;endArrow=none;endFill=0;strokeWidth=4;" edge="1" parent="1" source="czjufTqfxkIo00JqZaiN-20" target="czjufTqfxkIo00JqZaiN-65">
          <mxGeometry relative="1" as="geometry" />
        </mxCell>
        <mxCell id="czjufTqfxkIo00JqZaiN-67" value="43" style="edgeLabel;html=1;align=center;verticalAlign=middle;resizable=0;points=[];fontSize=22;fontFamily=Times New Roman;fontColor=default;labelBackgroundColor=default;" vertex="1" connectable="0" parent="czjufTqfxkIo00JqZaiN-66">
          <mxGeometry x="-0.1104" y="-2" relative="1" as="geometry">
            <mxPoint as="offset" />
          </mxGeometry>
        </mxCell>
        <mxCell id="czjufTqfxkIo00JqZaiN-68" style="edgeStyle=none;shape=connector;rounded=0;orthogonalLoop=1;jettySize=auto;html=1;exitX=0.5;exitY=1;exitDx=0;exitDy=0;entryX=0.5;entryY=0;entryDx=0;entryDy=0;labelBackgroundColor=default;strokeColor=default;align=center;verticalAlign=middle;fontFamily=Times New Roman;fontSize=30;fontColor=default;endArrow=none;endFill=0;strokeWidth=4;" edge="1" parent="1" source="czjufTqfxkIo00JqZaiN-25" target="czjufTqfxkIo00JqZaiN-65">
          <mxGeometry relative="1" as="geometry" />
        </mxCell>
        <mxCell id="czjufTqfxkIo00JqZaiN-69" value="30" style="edgeLabel;html=1;align=center;verticalAlign=middle;resizable=0;points=[];fontSize=22;fontFamily=Times New Roman;fontColor=default;labelBackgroundColor=default;" vertex="1" connectable="0" parent="czjufTqfxkIo00JqZaiN-68">
          <mxGeometry x="-0.1833" y="1" relative="1" as="geometry">
            <mxPoint x="75" y="48" as="offset" />
          </mxGeometry>
        </mxCell>
        <mxCell id="czjufTqfxkIo00JqZaiN-70" value="C" style="ellipse;whiteSpace=wrap;html=1;aspect=fixed;fontFamily=Times New Roman;fontSize=30;strokeWidth=4;" vertex="1" parent="1">
          <mxGeometry x="783.3167676767677" y="437.97135135135136" width="49" height="49" as="geometry" />
        </mxCell>
        <mxCell id="czjufTqfxkIo00JqZaiN-71" style="edgeStyle=none;shape=connector;rounded=0;orthogonalLoop=1;jettySize=auto;html=1;exitX=0.5;exitY=1;exitDx=0;exitDy=0;entryX=0.5;entryY=0;entryDx=0;entryDy=0;labelBackgroundColor=default;strokeColor=default;align=center;verticalAlign=middle;fontFamily=Times New Roman;fontSize=30;fontColor=default;endArrow=none;endFill=0;strokeWidth=4;" edge="1" parent="1" source="czjufTqfxkIo00JqZaiN-17" target="czjufTqfxkIo00JqZaiN-70">
          <mxGeometry relative="1" as="geometry" />
        </mxCell>
        <mxCell id="czjufTqfxkIo00JqZaiN-72" value="17" style="edgeLabel;html=1;align=center;verticalAlign=middle;resizable=0;points=[];fontSize=22;fontFamily=Times New Roman;fontColor=default;labelBackgroundColor=default;" vertex="1" connectable="0" parent="czjufTqfxkIo00JqZaiN-71">
          <mxGeometry x="0.0777" y="2" relative="1" as="geometry">
            <mxPoint x="-20" y="-15" as="offset" />
          </mxGeometry>
        </mxCell>
        <mxCell id="czjufTqfxkIo00JqZaiN-73" style="edgeStyle=none;shape=connector;rounded=0;orthogonalLoop=1;jettySize=auto;html=1;exitX=0.5;exitY=1;exitDx=0;exitDy=0;entryX=0.5;entryY=0;entryDx=0;entryDy=0;labelBackgroundColor=default;strokeColor=default;align=center;verticalAlign=middle;fontFamily=Times New Roman;fontSize=30;fontColor=default;endArrow=none;endFill=0;strokeWidth=4;" edge="1" parent="1" source="czjufTqfxkIo00JqZaiN-20" target="czjufTqfxkIo00JqZaiN-70">
          <mxGeometry relative="1" as="geometry" />
        </mxCell>
        <mxCell id="czjufTqfxkIo00JqZaiN-74" value="12" style="edgeLabel;html=1;align=center;verticalAlign=middle;resizable=0;points=[];fontSize=22;fontFamily=Times New Roman;fontColor=default;labelBackgroundColor=default;" vertex="1" connectable="0" parent="czjufTqfxkIo00JqZaiN-73">
          <mxGeometry x="0.6447" y="-1" relative="1" as="geometry">
            <mxPoint x="-1" y="-1" as="offset" />
          </mxGeometry>
        </mxCell>
        <mxCell id="czjufTqfxkIo00JqZaiN-75" style="edgeStyle=none;shape=connector;rounded=0;orthogonalLoop=1;jettySize=auto;html=1;exitX=0.5;exitY=1;exitDx=0;exitDy=0;entryX=0.5;entryY=0;entryDx=0;entryDy=0;labelBackgroundColor=default;strokeColor=default;align=center;verticalAlign=middle;fontFamily=Times New Roman;fontSize=30;fontColor=default;endArrow=none;endFill=0;strokeWidth=4;" edge="1" parent="1" source="czjufTqfxkIo00JqZaiN-25" target="czjufTqfxkIo00JqZaiN-70">
          <mxGeometry relative="1" as="geometry" />
        </mxCell>
        <mxCell id="czjufTqfxkIo00JqZaiN-76" value="63" style="edgeLabel;html=1;align=center;verticalAlign=middle;resizable=0;points=[];fontSize=22;fontFamily=Times New Roman;fontColor=default;labelBackgroundColor=default;" vertex="1" connectable="0" parent="czjufTqfxkIo00JqZaiN-75">
          <mxGeometry x="0.0769" y="3" relative="1" as="geometry">
            <mxPoint x="3" y="-8" as="offset" />
          </mxGeometry>
        </mxCell>
        <mxCell id="czjufTqfxkIo00JqZaiN-77" value="&lt;br style=&quot;font-size: 30px;&quot;&gt;$$v_{a_0}$$" style="text;html=1;strokeColor=none;fillColor=none;align=center;verticalAlign=middle;whiteSpace=wrap;rounded=0;fontSize=30;fontFamily=Times New Roman;fontColor=default;" vertex="1" parent="1">
          <mxGeometry x="635.9993939393939" y="78.24486486486487" width="60.60606060606062" height="37.29729729729729" as="geometry" />
        </mxCell>
        <mxCell id="czjufTqfxkIo00JqZaiN-78" value="&lt;br style=&quot;font-size: 30px;&quot;&gt;$$v_{a_1}$$" style="text;html=1;strokeColor=none;fillColor=none;align=center;verticalAlign=middle;whiteSpace=wrap;rounded=0;fontSize=30;fontFamily=Times New Roman;fontColor=default;" vertex="1" parent="1">
          <mxGeometry x="772.52" y="238.03" width="56.16" height="25.3" as="geometry" />
        </mxCell>
        <mxCell id="czjufTqfxkIo00JqZaiN-79" value="&lt;br style=&quot;font-size: 30px;&quot;&gt;$$v_{b_0}$$" style="text;html=1;strokeColor=none;fillColor=none;align=center;verticalAlign=middle;whiteSpace=wrap;rounded=0;fontSize=30;fontFamily=Times New Roman;fontColor=default;" vertex="1" parent="1">
          <mxGeometry x="510" y="228.65918918918916" width="60.60606060606062" height="37.29729729729729" as="geometry" />
        </mxCell>
        <mxCell id="czjufTqfxkIo00JqZaiN-80" value="&lt;br style=&quot;font-size: 30px;&quot;&gt;$$v_{b_1}$$" style="text;html=1;strokeColor=none;fillColor=none;align=center;verticalAlign=middle;whiteSpace=wrap;rounded=0;fontSize=30;fontFamily=Times New Roman;fontColor=default;" vertex="1" parent="1">
          <mxGeometry x="1011.4006060606062" y="233.02972972972972" width="60.60606060606062" height="37.29729729729729" as="geometry" />
        </mxCell>
        <mxCell id="czjufTqfxkIo00JqZaiN-81" value="&lt;br style=&quot;font-size: 30px;&quot;&gt;$$v_{c_0}$$" style="text;html=1;strokeColor=none;fillColor=none;align=center;verticalAlign=middle;whiteSpace=wrap;rounded=0;fontSize=30;fontFamily=Times New Roman;fontColor=default;" vertex="1" parent="1">
          <mxGeometry x="601.1941414141414" y="467.03297297297297" width="60.60606060606062" height="37.29729729729729" as="geometry" />
        </mxCell>
        <mxCell id="czjufTqfxkIo00JqZaiN-82" value="&lt;br style=&quot;font-size: 30px;&quot;&gt;$$v_{c_1}$$" style="text;html=1;strokeColor=none;fillColor=none;align=center;verticalAlign=middle;whiteSpace=wrap;rounded=0;fontSize=30;fontFamily=Times New Roman;fontColor=default;perimeterSpacing=2;" vertex="1" parent="1">
          <mxGeometry x="690.8" y="465.18000000000006" width="60.61" height="41" as="geometry" />
        </mxCell>
        <mxCell id="czjufTqfxkIo00JqZaiN-83" value="&lt;br style=&quot;font-size: 30px;&quot;&gt;$$v_{c_2}$$" style="text;html=1;strokeColor=none;fillColor=none;align=center;verticalAlign=middle;whiteSpace=wrap;rounded=0;fontSize=30;fontFamily=Times New Roman;fontColor=default;" vertex="1" parent="1">
          <mxGeometry x="777.5151515151515" y="465.18297297297283" width="60.60606060606062" height="37.29729729729729" as="geometry" />
        </mxCell>
        <mxCell id="czjufTqfxkIo00JqZaiN-84" value="&lt;br style=&quot;font-size: 30px;&quot;&gt;$$v_{c_3}$$" style="text;html=1;strokeColor=none;fillColor=none;align=center;verticalAlign=middle;whiteSpace=wrap;rounded=0;fontSize=30;fontFamily=Times New Roman;fontColor=default;" vertex="1" parent="1">
          <mxGeometry x="985.9762626262626" y="467.0329729729731" width="60.60606060606062" height="37.29729729729729" as="geometry" />
        </mxCell>
        <mxCell id="czjufTqfxkIo00JqZaiN-85" value="A" style="ellipse;whiteSpace=wrap;html=1;aspect=fixed;fontFamily=Times New Roman;fontSize=30;strokeWidth=4;" vertex="1" parent="1">
          <mxGeometry x="889.2825252525253" y="437.96810810810814" width="49" height="49" as="geometry" />
        </mxCell>
        <mxCell id="czjufTqfxkIo00JqZaiN-86" style="edgeStyle=none;shape=connector;rounded=0;orthogonalLoop=1;jettySize=auto;html=1;exitX=0.5;exitY=1;exitDx=0;exitDy=0;entryX=0.5;entryY=0;entryDx=0;entryDy=0;labelBackgroundColor=default;strokeColor=default;align=center;verticalAlign=middle;fontFamily=Times New Roman;fontSize=30;fontColor=default;endArrow=none;endFill=0;strokeWidth=4;" edge="1" parent="1" source="czjufTqfxkIo00JqZaiN-20" target="czjufTqfxkIo00JqZaiN-85">
          <mxGeometry relative="1" as="geometry" />
        </mxCell>
        <mxCell id="czjufTqfxkIo00JqZaiN-87" value="45" style="edgeLabel;html=1;align=center;verticalAlign=middle;resizable=0;points=[];fontSize=22;fontFamily=Times New Roman;fontColor=default;labelBackgroundColor=default;" vertex="1" connectable="0" parent="czjufTqfxkIo00JqZaiN-86">
          <mxGeometry x="-0.1274" y="1" relative="1" as="geometry">
            <mxPoint x="-76" y="42" as="offset" />
          </mxGeometry>
        </mxCell>
        <mxCell id="czjufTqfxkIo00JqZaiN-88" style="edgeStyle=none;shape=connector;rounded=0;orthogonalLoop=1;jettySize=auto;html=1;exitX=0.5;exitY=1;exitDx=0;exitDy=0;entryX=0.5;entryY=0;entryDx=0;entryDy=0;labelBackgroundColor=default;strokeColor=default;align=center;verticalAlign=middle;fontFamily=Times New Roman;fontSize=30;fontColor=default;endArrow=none;endFill=0;strokeWidth=4;" edge="1" parent="1" source="czjufTqfxkIo00JqZaiN-25" target="czjufTqfxkIo00JqZaiN-85">
          <mxGeometry relative="1" as="geometry" />
        </mxCell>
        <mxCell id="czjufTqfxkIo00JqZaiN-89" value="34" style="edgeLabel;html=1;align=center;verticalAlign=middle;resizable=0;points=[];fontSize=22;fontFamily=Times New Roman;fontColor=default;labelBackgroundColor=default;" vertex="1" connectable="0" parent="czjufTqfxkIo00JqZaiN-88">
          <mxGeometry x="-0.2207" y="1" relative="1" as="geometry">
            <mxPoint x="-8" y="-9" as="offset" />
          </mxGeometry>
        </mxCell>
        <mxCell id="czjufTqfxkIo00JqZaiN-90" value="&lt;br style=&quot;font-size: 30px;&quot;&gt;$$v_{a_2}$$" style="text;html=1;strokeColor=none;fillColor=none;align=center;verticalAlign=middle;whiteSpace=wrap;rounded=0;fontSize=30;fontFamily=Times New Roman;fontColor=default;" vertex="1" parent="1">
          <mxGeometry x="889.28" y="470.67999999999995" width="60.61" height="30" as="geometry" />
        </mxCell>
        <mxCell id="czjufTqfxkIo00JqZaiN-91" value="A" style="ellipse;whiteSpace=wrap;html=1;aspect=fixed;fontFamily=Times New Roman;fontSize=30;strokeWidth=4;" vertex="1" parent="1">
          <mxGeometry x="1097.6041414141414" y="437.1781081081082" width="49" height="49" as="geometry" />
        </mxCell>
        <mxCell id="czjufTqfxkIo00JqZaiN-92" style="edgeStyle=none;shape=connector;rounded=0;orthogonalLoop=1;jettySize=auto;html=1;exitX=0.5;exitY=1;exitDx=0;exitDy=0;entryX=0.5;entryY=0;entryDx=0;entryDy=0;labelBackgroundColor=default;strokeColor=default;align=center;verticalAlign=middle;fontFamily=Times New Roman;fontSize=30;fontColor=default;endArrow=none;endFill=0;strokeWidth=4;" edge="1" parent="1" source="czjufTqfxkIo00JqZaiN-20" target="czjufTqfxkIo00JqZaiN-91">
          <mxGeometry relative="1" as="geometry" />
        </mxCell>
        <mxCell id="czjufTqfxkIo00JqZaiN-93" value="23" style="edgeLabel;html=1;align=center;verticalAlign=middle;resizable=0;points=[];fontSize=22;fontFamily=Times New Roman;fontColor=default;labelBackgroundColor=default;" vertex="1" connectable="0" parent="czjufTqfxkIo00JqZaiN-92">
          <mxGeometry x="-0.3137" y="-1" relative="1" as="geometry">
            <mxPoint as="offset" />
          </mxGeometry>
        </mxCell>
        <mxCell id="czjufTqfxkIo00JqZaiN-94" value="&lt;br style=&quot;font-size: 30px;&quot;&gt;$$v_{a_3}$$" style="text;html=1;strokeColor=none;fillColor=none;align=center;verticalAlign=middle;whiteSpace=wrap;rounded=0;fontSize=30;fontFamily=Times New Roman;fontColor=default;" vertex="1" parent="1">
          <mxGeometry x="1097.6" y="444.65999999999997" width="60.61" height="82.03" as="geometry" />
        </mxCell>
        <mxCell id="czjufTqfxkIo00JqZaiN-95" style="edgeStyle=none;shape=connector;rounded=0;orthogonalLoop=1;jettySize=auto;html=1;exitX=0.5;exitY=1;exitDx=0;exitDy=0;entryX=0.5;entryY=0;entryDx=0;entryDy=0;labelBackgroundColor=default;strokeColor=default;align=center;verticalAlign=middle;fontFamily=Times New Roman;fontSize=30;fontColor=default;endArrow=none;endFill=0;strokeWidth=4;" edge="1" parent="1" source="czjufTqfxkIo00JqZaiN-25" target="czjufTqfxkIo00JqZaiN-91">
          <mxGeometry relative="1" as="geometry" />
        </mxCell>
        <mxCell id="czjufTqfxkIo00JqZaiN-96" value="30" style="edgeLabel;html=1;align=center;verticalAlign=middle;resizable=0;points=[];fontSize=22;fontFamily=Times New Roman;fontColor=default;labelBackgroundColor=default;" vertex="1" connectable="0" parent="czjufTqfxkIo00JqZaiN-95">
          <mxGeometry x="-0.431" y="4" relative="1" as="geometry">
            <mxPoint x="147" y="65" as="offset" />
          </mxGeometry>
        </mxCell>
        <mxCell id="czjufTqfxkIo00JqZaiN-97" style="edgeStyle=orthogonalEdgeStyle;rounded=0;orthogonalLoop=1;jettySize=auto;html=1;exitX=0.5;exitY=1;exitDx=0;exitDy=0;fontFamily=Times New Roman;fontSize=30;" edge="1" parent="1" source="czjufTqfxkIo00JqZaiN-77" target="czjufTqfxkIo00JqZaiN-77">
          <mxGeometry relative="1" as="geometry" />
        </mxCell>
        <mxCell id="czjufTqfxkIo00JqZaiN-98" style="edgeStyle=orthogonalEdgeStyle;rounded=0;orthogonalLoop=1;jettySize=auto;html=1;exitX=0.5;exitY=1;exitDx=0;exitDy=0;" edge="1" parent="1" source="czjufTqfxkIo00JqZaiN-81" target="czjufTqfxkIo00JqZaiN-81">
          <mxGeometry relative="1" as="geometry" />
        </mxCell>
        <mxCell id="czjufTqfxkIo00JqZaiN-100" value="&lt;font color=&quot;#ff0000&quot;&gt;$$&amp;lt;-,v_{b_0},v_{a_1}&amp;gt;$$&lt;/font&gt;" style="text;html=1;strokeColor=none;fillColor=none;align=center;verticalAlign=middle;whiteSpace=wrap;rounded=0;fontFamily=Times New Roman;fontSize=18;" vertex="1" parent="1">
          <mxGeometry x="675.09" y="245.86" width="60" height="30" as="geometry" />
        </mxCell>
        <mxCell id="czjufTqfxkIo00JqZaiN-101" value="A" style="ellipse;whiteSpace=wrap;html=1;aspect=fixed;fontFamily=Times New Roman;fontSize=30;strokeWidth=4;" vertex="1" parent="1">
          <mxGeometry x="329.8856565656566" y="165.65216216216217" width="50" height="50" as="geometry" />
        </mxCell>
        <mxCell id="czjufTqfxkIo00JqZaiN-102" value="A" style="ellipse;whiteSpace=wrap;html=1;aspect=fixed;fontFamily=Times New Roman;fontSize=30;strokeWidth=4;" vertex="1" parent="1">
          <mxGeometry x="380.39070707070715" y="277.5440540540541" width="50" height="50" as="geometry" />
        </mxCell>
        <mxCell id="czjufTqfxkIo00JqZaiN-103" style="edgeStyle=none;shape=connector;rounded=0;orthogonalLoop=1;jettySize=auto;html=1;exitX=0.5;exitY=1;exitDx=0;exitDy=0;entryX=0.5;entryY=0;entryDx=0;entryDy=0;labelBackgroundColor=default;strokeColor=default;align=center;verticalAlign=middle;fontFamily=Times New Roman;fontSize=30;fontColor=default;endArrow=none;endFill=0;strokeWidth=4;" edge="1" parent="1" source="czjufTqfxkIo00JqZaiN-101" target="czjufTqfxkIo00JqZaiN-102">
          <mxGeometry relative="1" as="geometry" />
        </mxCell>
        <mxCell id="czjufTqfxkIo00JqZaiN-104" style="edgeStyle=none;shape=connector;rounded=0;orthogonalLoop=1;jettySize=auto;html=1;exitX=1;exitY=0.5;exitDx=0;exitDy=0;entryX=0;entryY=0.5;entryDx=0;entryDy=0;labelBackgroundColor=default;strokeColor=default;align=center;verticalAlign=middle;fontFamily=Times New Roman;fontSize=30;fontColor=default;endArrow=none;endFill=0;strokeWidth=4;" edge="1" parent="1" source="czjufTqfxkIo00JqZaiN-105" target="czjufTqfxkIo00JqZaiN-102">
          <mxGeometry relative="1" as="geometry" />
        </mxCell>
        <mxCell id="czjufTqfxkIo00JqZaiN-105" value="B" style="ellipse;whiteSpace=wrap;html=1;aspect=fixed;fontFamily=Times New Roman;fontSize=30;strokeWidth=4;" vertex="1" parent="1">
          <mxGeometry x="284.4311111111111" y="277.5440540540541" width="50" height="50" as="geometry" />
        </mxCell>
        <mxCell id="czjufTqfxkIo00JqZaiN-106" style="edgeStyle=none;shape=connector;rounded=0;orthogonalLoop=1;jettySize=auto;html=1;exitX=0.5;exitY=1;exitDx=0;exitDy=0;entryX=0.5;entryY=0;entryDx=0;entryDy=0;labelBackgroundColor=default;strokeColor=default;align=center;verticalAlign=middle;fontFamily=Times New Roman;fontSize=30;fontColor=default;endArrow=none;endFill=0;strokeWidth=4;" edge="1" parent="1" source="czjufTqfxkIo00JqZaiN-101" target="czjufTqfxkIo00JqZaiN-105">
          <mxGeometry relative="1" as="geometry" />
        </mxCell>
        <mxCell id="czjufTqfxkIo00JqZaiN-107" value="C" style="ellipse;whiteSpace=wrap;html=1;aspect=fixed;fontFamily=Times New Roman;fontSize=30;strokeWidth=4;" vertex="1" parent="1">
          <mxGeometry x="334.93616161616154" y="404.35486486486485" width="50" height="50" as="geometry" />
        </mxCell>
        <mxCell id="czjufTqfxkIo00JqZaiN-108" style="edgeStyle=none;shape=connector;rounded=0;orthogonalLoop=1;jettySize=auto;html=1;exitX=0.5;exitY=1;exitDx=0;exitDy=0;entryX=0.5;entryY=0;entryDx=0;entryDy=0;labelBackgroundColor=default;strokeColor=default;align=center;verticalAlign=middle;fontFamily=Times New Roman;fontSize=30;fontColor=default;endArrow=none;endFill=0;strokeWidth=4;" edge="1" parent="1" source="czjufTqfxkIo00JqZaiN-102" target="czjufTqfxkIo00JqZaiN-107">
          <mxGeometry relative="1" as="geometry" />
        </mxCell>
        <mxCell id="czjufTqfxkIo00JqZaiN-109" style="edgeStyle=none;shape=connector;rounded=0;orthogonalLoop=1;jettySize=auto;html=1;exitX=0.5;exitY=1;exitDx=0;exitDy=0;entryX=0.5;entryY=0;entryDx=0;entryDy=0;labelBackgroundColor=default;strokeColor=default;align=center;verticalAlign=middle;fontFamily=Times New Roman;fontSize=30;fontColor=default;endArrow=none;endFill=0;strokeWidth=4;" edge="1" parent="1" source="czjufTqfxkIo00JqZaiN-105" target="czjufTqfxkIo00JqZaiN-107">
          <mxGeometry relative="1" as="geometry" />
        </mxCell>
        <mxCell id="czjufTqfxkIo00JqZaiN-110" value="$$u_1$$" style="text;html=1;strokeColor=none;fillColor=none;align=center;verticalAlign=middle;whiteSpace=wrap;rounded=0;fontSize=30;fontFamily=Times New Roman;fontColor=default;" vertex="1" parent="1">
          <mxGeometry x="333.4266666666667" y="256.8954054054054" width="60.60606060606062" height="37.29729729729729" as="geometry" />
        </mxCell>
        <mxCell id="czjufTqfxkIo00JqZaiN-111" value="$$u_3$$" style="text;html=1;strokeColor=none;fillColor=none;align=center;verticalAlign=middle;whiteSpace=wrap;rounded=0;fontSize=30;fontFamily=Times New Roman;fontColor=default;" vertex="1" parent="1">
          <mxGeometry x="329.88464646464644" y="446.7121621621621" width="60.60606060606062" height="37.29729729729729" as="geometry" />
        </mxCell>
        <mxCell id="czjufTqfxkIo00JqZaiN-112" value="$$u_0$$" style="text;html=1;strokeColor=none;fillColor=none;align=center;verticalAlign=middle;whiteSpace=wrap;rounded=0;fontSize=30;fontFamily=Times New Roman;fontColor=default;" vertex="1" parent="1">
          <mxGeometry x="279.3817171717172" y="151.32351351351352" width="60.60606060606062" height="37.29729729729729" as="geometry" />
        </mxCell>
        <mxCell id="czjufTqfxkIo00JqZaiN-113" value="$$u_2$$" style="text;html=1;strokeColor=none;fillColor=none;align=center;verticalAlign=middle;whiteSpace=wrap;rounded=0;fontSize=30;fontFamily=Times New Roman;fontColor=default;" vertex="1" parent="1">
          <mxGeometry x="234.42707070707075" y="258.8954054054054" width="60.60606060606062" height="37.29729729729729" as="geometry" />
        </mxCell>
        <mxCell id="czjufTqfxkIo00JqZaiN-114" value="&amp;nbsp;Query Graph Q" style="text;html=1;strokeColor=none;fillColor=none;align=center;verticalAlign=middle;whiteSpace=wrap;rounded=0;fontSize=30;fontFamily=Times New Roman;fontColor=default;" vertex="1" parent="1">
          <mxGeometry x="229.00414141414154" y="558.7121621621623" width="242.4242424242425" height="24.864864864864863" as="geometry" />
        </mxCell>
        <mxCell id="czjufTqfxkIo00JqZaiN-115" value="" style="endArrow=classic;html=1;rounded=0;strokeWidth=3;" edge="1" parent="1">
          <mxGeometry width="50" height="50" relative="1" as="geometry">
            <mxPoint x="1146.6" y="296.82" as="sourcePoint" />
            <mxPoint x="1226.6" y="296.82" as="targetPoint" />
          </mxGeometry>
        </mxCell>
        <mxCell id="czjufTqfxkIo00JqZaiN-116" style="edgeStyle=none;shape=connector;rounded=0;orthogonalLoop=1;jettySize=auto;html=1;exitX=0.25;exitY=1;exitDx=0;exitDy=0;labelBackgroundColor=default;strokeColor=default;align=center;verticalAlign=middle;fontFamily=Times New Roman;fontSize=30;fontColor=default;endArrow=none;endFill=0;strokeWidth=4;" edge="1" parent="1">
          <mxGeometry relative="1" as="geometry">
            <mxPoint x="1240" y="394.47999999999996" as="sourcePoint" />
            <mxPoint x="1240" y="394.47999999999996" as="targetPoint" />
          </mxGeometry>
        </mxCell>
        <mxCell id="czjufTqfxkIo00JqZaiN-117" value="A" style="ellipse;whiteSpace=wrap;html=1;aspect=fixed;fontFamily=Times New Roman;fontSize=30;strokeWidth=4;" vertex="1" parent="1">
          <mxGeometry x="1293.5935353535353" y="144.99216216216217" width="50" height="50" as="geometry" />
        </mxCell>
        <mxCell id="czjufTqfxkIo00JqZaiN-121" value="B" style="ellipse;whiteSpace=wrap;html=1;aspect=fixed;fontFamily=Times New Roman;fontSize=30;strokeWidth=4;" vertex="1" parent="1">
          <mxGeometry x="1672.1248484848484" y="301.77405405405403" width="50" height="50" as="geometry" />
        </mxCell>
        <mxCell id="czjufTqfxkIo00JqZaiN-122" style="edgeStyle=none;shape=connector;rounded=0;orthogonalLoop=1;jettySize=auto;html=1;exitX=0.5;exitY=1;exitDx=0;exitDy=0;entryX=0.5;entryY=0;entryDx=0;entryDy=0;labelBackgroundColor=default;strokeColor=default;align=center;verticalAlign=middle;fontFamily=Times New Roman;fontSize=30;fontColor=default;endArrow=none;endFill=0;strokeWidth=4;" edge="1" parent="1" source="czjufTqfxkIo00JqZaiN-117" target="czjufTqfxkIo00JqZaiN-121">
          <mxGeometry relative="1" as="geometry" />
        </mxCell>
        <mxCell id="czjufTqfxkIo00JqZaiN-123" value="60" style="edgeLabel;html=1;align=center;verticalAlign=middle;resizable=0;points=[];fontSize=22;fontFamily=Times New Roman;fontColor=default;labelBackgroundColor=default;rotation=0;" vertex="1" connectable="0" parent="czjufTqfxkIo00JqZaiN-122">
          <mxGeometry x="-0.6409" y="1" relative="1" as="geometry">
            <mxPoint x="44" y="13" as="offset" />
          </mxGeometry>
        </mxCell>
        <mxCell id="czjufTqfxkIo00JqZaiN-124" style="edgeStyle=none;shape=connector;rounded=0;orthogonalLoop=1;jettySize=auto;html=1;exitX=1;exitY=0.5;exitDx=0;exitDy=0;labelBackgroundColor=default;strokeColor=#000000;align=center;verticalAlign=middle;fontFamily=Times New Roman;fontSize=30;fontColor=default;endArrow=none;endFill=0;strokeWidth=4;" edge="1" parent="1" source="czjufTqfxkIo00JqZaiN-126" target="czjufTqfxkIo00JqZaiN-121">
          <mxGeometry relative="1" as="geometry" />
        </mxCell>
        <mxCell id="czjufTqfxkIo00JqZaiN-125" value="&lt;font style=&quot;font-size: 22px;&quot;&gt;60&lt;/font&gt;" style="edgeLabel;html=1;align=center;verticalAlign=middle;resizable=0;points=[];fontSize=22;fontFamily=Times New Roman;fontColor=#000000;labelBackgroundColor=default;" vertex="1" connectable="0" parent="czjufTqfxkIo00JqZaiN-124">
          <mxGeometry x="-0.1325" y="1" relative="1" as="geometry">
            <mxPoint x="13" y="-3" as="offset" />
          </mxGeometry>
        </mxCell>
        <mxCell id="czjufTqfxkIo00JqZaiN-126" value="A" style="ellipse;whiteSpace=wrap;html=1;aspect=fixed;fontFamily=Times New Roman;fontSize=30;strokeWidth=4;" vertex="1" parent="1">
          <mxGeometry x="1431.469696969697" y="300.534054054054" width="50" height="50" as="geometry" />
        </mxCell>
        <mxCell id="czjufTqfxkIo00JqZaiN-127" style="edgeStyle=none;shape=connector;rounded=0;orthogonalLoop=1;jettySize=auto;html=1;exitX=0.5;exitY=1;exitDx=0;exitDy=0;entryX=0.5;entryY=0;entryDx=0;entryDy=0;labelBackgroundColor=default;strokeColor=default;align=center;verticalAlign=middle;fontFamily=Times New Roman;fontSize=30;fontColor=default;endArrow=none;endFill=0;strokeWidth=4;" edge="1" parent="1" source="czjufTqfxkIo00JqZaiN-117" target="czjufTqfxkIo00JqZaiN-126">
          <mxGeometry relative="1" as="geometry" />
        </mxCell>
        <mxCell id="czjufTqfxkIo00JqZaiN-128" value="60" style="edgeLabel;html=1;align=center;verticalAlign=middle;resizable=0;points=[];fontSize=22;fontFamily=Times New Roman;fontColor=default;rotation=0;labelBackgroundColor=default;" vertex="1" connectable="0" parent="czjufTqfxkIo00JqZaiN-127">
          <mxGeometry x="-0.1" y="2" relative="1" as="geometry">
            <mxPoint x="-7" as="offset" />
          </mxGeometry>
        </mxCell>
        <mxCell id="czjufTqfxkIo00JqZaiN-131" style="edgeStyle=none;shape=connector;rounded=0;orthogonalLoop=1;jettySize=auto;html=1;exitX=0.5;exitY=1;exitDx=0;exitDy=0;entryX=0.5;entryY=0;entryDx=0;entryDy=0;labelBackgroundColor=default;strokeColor=default;align=center;verticalAlign=middle;fontFamily=Times New Roman;fontSize=30;fontColor=default;endArrow=none;endFill=0;strokeWidth=4;" edge="1" parent="1" source="czjufTqfxkIo00JqZaiN-135" target="czjufTqfxkIo00JqZaiN-126">
          <mxGeometry relative="1" as="geometry" />
        </mxCell>
        <mxCell id="czjufTqfxkIo00JqZaiN-132" value="1" style="edgeLabel;html=1;align=center;verticalAlign=middle;resizable=0;points=[];fontSize=22;fontFamily=Times New Roman;fontColor=default;labelBackgroundColor=default;" vertex="1" connectable="0" parent="czjufTqfxkIo00JqZaiN-131">
          <mxGeometry x="-0.5049" y="1" relative="1" as="geometry">
            <mxPoint x="-3" y="-7" as="offset" />
          </mxGeometry>
        </mxCell>
        <mxCell id="czjufTqfxkIo00JqZaiN-133" style="edgeStyle=none;shape=connector;rounded=0;orthogonalLoop=1;jettySize=auto;html=1;exitX=0.5;exitY=1;exitDx=0;exitDy=0;entryX=0.5;entryY=0;entryDx=0;entryDy=0;labelBackgroundColor=default;strokeColor=default;align=center;verticalAlign=middle;fontFamily=Times New Roman;fontSize=30;fontColor=default;endArrow=none;endFill=0;strokeWidth=4;" edge="1" parent="1" source="czjufTqfxkIo00JqZaiN-135" target="czjufTqfxkIo00JqZaiN-121">
          <mxGeometry relative="1" as="geometry" />
        </mxCell>
        <mxCell id="czjufTqfxkIo00JqZaiN-134" value="1" style="edgeLabel;html=1;align=center;verticalAlign=middle;resizable=0;points=[];fontSize=22;fontFamily=Times New Roman;fontColor=default;labelBackgroundColor=default;" vertex="1" connectable="0" parent="czjufTqfxkIo00JqZaiN-133">
          <mxGeometry x="-0.7554" y="1" relative="1" as="geometry">
            <mxPoint x="1" y="-1" as="offset" />
          </mxGeometry>
        </mxCell>
        <mxCell id="czjufTqfxkIo00JqZaiN-135" value="A" style="ellipse;whiteSpace=wrap;html=1;aspect=fixed;fontFamily=Times New Roman;fontSize=30;strokeWidth=4;" vertex="1" parent="1">
          <mxGeometry x="1465.3120202020202" y="133.77216216216218" width="50" height="50" as="geometry" />
        </mxCell>
        <mxCell id="czjufTqfxkIo00JqZaiN-136" style="edgeStyle=none;shape=connector;rounded=0;orthogonalLoop=1;jettySize=auto;html=1;exitX=0.5;exitY=1;exitDx=0;exitDy=0;entryX=0.5;entryY=0;entryDx=0;entryDy=0;labelBackgroundColor=default;strokeColor=default;align=center;verticalAlign=middle;fontFamily=Times New Roman;fontSize=30;fontColor=default;endArrow=none;endFill=0;strokeWidth=4;" edge="1" parent="1" source="czjufTqfxkIo00JqZaiN-140" target="czjufTqfxkIo00JqZaiN-126">
          <mxGeometry relative="1" as="geometry" />
        </mxCell>
        <mxCell id="czjufTqfxkIo00JqZaiN-137" value="1" style="edgeLabel;html=1;align=center;verticalAlign=middle;resizable=0;points=[];fontSize=22;fontFamily=Times New Roman;fontColor=default;labelBackgroundColor=default;" vertex="1" connectable="0" parent="czjufTqfxkIo00JqZaiN-136">
          <mxGeometry x="-0.2845" y="-1" relative="1" as="geometry">
            <mxPoint x="26" y="-27" as="offset" />
          </mxGeometry>
        </mxCell>
        <mxCell id="czjufTqfxkIo00JqZaiN-138" style="edgeStyle=none;shape=connector;rounded=0;orthogonalLoop=1;jettySize=auto;html=1;exitX=0.5;exitY=1;exitDx=0;exitDy=0;entryX=0.5;entryY=0;entryDx=0;entryDy=0;labelBackgroundColor=default;strokeColor=default;align=center;verticalAlign=middle;fontFamily=Times New Roman;fontSize=30;fontColor=default;endArrow=none;endFill=0;strokeWidth=4;" edge="1" parent="1" source="czjufTqfxkIo00JqZaiN-140" target="czjufTqfxkIo00JqZaiN-121">
          <mxGeometry relative="1" as="geometry" />
        </mxCell>
        <mxCell id="czjufTqfxkIo00JqZaiN-139" value="1" style="edgeLabel;html=1;align=center;verticalAlign=middle;resizable=0;points=[];fontSize=22;fontFamily=Times New Roman;fontColor=default;labelBackgroundColor=default;" vertex="1" connectable="0" parent="czjufTqfxkIo00JqZaiN-138">
          <mxGeometry x="-0.7183" y="2" relative="1" as="geometry">
            <mxPoint x="2" y="-4" as="offset" />
          </mxGeometry>
        </mxCell>
        <mxCell id="czjufTqfxkIo00JqZaiN-140" value="A" style="ellipse;whiteSpace=wrap;html=1;aspect=fixed;fontFamily=Times New Roman;fontSize=30;strokeWidth=4;" vertex="1" parent="1">
          <mxGeometry x="1557.3970707070707" y="136.48216216216215" width="50" height="50" as="geometry" />
        </mxCell>
        <mxCell id="czjufTqfxkIo00JqZaiN-141" style="edgeStyle=none;shape=connector;rounded=0;orthogonalLoop=1;jettySize=auto;html=1;exitX=0.5;exitY=1;exitDx=0;exitDy=0;entryX=0.5;entryY=0;entryDx=0;entryDy=0;labelBackgroundColor=default;strokeColor=default;align=center;verticalAlign=middle;fontFamily=Times New Roman;fontSize=30;fontColor=default;endArrow=none;endFill=0;strokeWidth=4;" edge="1" parent="1" source="czjufTqfxkIo00JqZaiN-145" target="czjufTqfxkIo00JqZaiN-126">
          <mxGeometry relative="1" as="geometry" />
        </mxCell>
        <mxCell id="czjufTqfxkIo00JqZaiN-142" value="1" style="edgeLabel;html=1;align=center;verticalAlign=middle;resizable=0;points=[];fontSize=22;fontFamily=Times New Roman;fontColor=default;labelBackgroundColor=default;" vertex="1" connectable="0" parent="czjufTqfxkIo00JqZaiN-141">
          <mxGeometry x="-0.7186" relative="1" as="geometry">
            <mxPoint x="-3" y="-6" as="offset" />
          </mxGeometry>
        </mxCell>
        <mxCell id="czjufTqfxkIo00JqZaiN-143" style="edgeStyle=none;shape=connector;rounded=0;orthogonalLoop=1;jettySize=auto;html=1;exitX=0.5;exitY=1;exitDx=0;exitDy=0;entryX=0.5;entryY=0;entryDx=0;entryDy=0;labelBackgroundColor=default;strokeColor=default;align=center;verticalAlign=middle;fontFamily=Times New Roman;fontSize=30;fontColor=default;endArrow=none;endFill=0;strokeWidth=4;" edge="1" parent="1" source="czjufTqfxkIo00JqZaiN-145" target="czjufTqfxkIo00JqZaiN-121">
          <mxGeometry relative="1" as="geometry" />
        </mxCell>
        <mxCell id="czjufTqfxkIo00JqZaiN-144" value="1" style="edgeLabel;html=1;align=center;verticalAlign=middle;resizable=0;points=[];fontSize=22;fontFamily=Times New Roman;fontColor=default;labelBackgroundColor=default;" vertex="1" connectable="0" parent="czjufTqfxkIo00JqZaiN-143">
          <mxGeometry x="-0.4949" y="2" relative="1" as="geometry">
            <mxPoint x="-6" y="-5" as="offset" />
          </mxGeometry>
        </mxCell>
        <mxCell id="czjufTqfxkIo00JqZaiN-145" value="A" style="ellipse;whiteSpace=wrap;html=1;aspect=fixed;fontFamily=Times New Roman;fontSize=30;strokeWidth=4;" vertex="1" parent="1">
          <mxGeometry x="1672.1241414141414" y="136.48216216216215" width="50" height="50" as="geometry" />
        </mxCell>
        <mxCell id="czjufTqfxkIo00JqZaiN-146" value="......" style="text;html=1;strokeColor=none;fillColor=none;align=center;verticalAlign=middle;whiteSpace=wrap;rounded=0;fontSize=30;fontFamily=Times New Roman;fontColor=default;" vertex="1" parent="1">
          <mxGeometry x="1616.889090909091" y="142.83216216216218" width="60.60606060606062" height="37.29729729729729" as="geometry" />
        </mxCell>
        <mxCell id="czjufTqfxkIo00JqZaiN-147" value="" style="shape=curlyBracket;whiteSpace=wrap;html=1;rounded=1;labelPosition=left;verticalLabelPosition=middle;align=right;verticalAlign=middle;fontFamily=Times New Roman;fontSize=30;fontColor=default;rotation=90;size=0.5;strokeWidth=4;" vertex="1" parent="1">
          <mxGeometry x="1566.8899999999999" y="19.45" width="20.39" height="194.94" as="geometry" />
        </mxCell>
        <mxCell id="czjufTqfxkIo00JqZaiN-148" value="1000" style="text;html=1;strokeColor=none;fillColor=none;align=center;verticalAlign=middle;whiteSpace=wrap;rounded=0;fontSize=22;fontFamily=Times New Roman;fontColor=default;" vertex="1" parent="1">
          <mxGeometry x="1546.7865656565657" y="76.48" width="60.60606060606062" height="37.29729729729729" as="geometry" />
        </mxCell>
        <mxCell id="czjufTqfxkIo00JqZaiN-149" value="&lt;br style=&quot;font-size: 30px;&quot;&gt;$$v_{a_4}$$" style="text;html=1;strokeColor=none;fillColor=none;align=center;verticalAlign=middle;whiteSpace=wrap;rounded=0;fontSize=30;fontFamily=Times New Roman;fontColor=default;" vertex="1" parent="1">
          <mxGeometry x="1411.7076767676767" y="99.18486486486488" width="60.60606060606062" height="37.29729729729729" as="geometry" />
        </mxCell>
        <mxCell id="czjufTqfxkIo00JqZaiN-150" style="edgeStyle=none;shape=connector;rounded=0;orthogonalLoop=1;jettySize=auto;html=1;exitX=0.5;exitY=1;exitDx=0;exitDy=0;labelBackgroundColor=default;strokeColor=default;align=center;verticalAlign=middle;fontFamily=Times New Roman;fontSize=30;fontColor=default;endArrow=none;endFill=0;strokeWidth=4;" edge="1" parent="1" source="czjufTqfxkIo00JqZaiN-149" target="czjufTqfxkIo00JqZaiN-149">
          <mxGeometry relative="1" as="geometry" />
        </mxCell>
        <mxCell id="czjufTqfxkIo00JqZaiN-151" value="&lt;br style=&quot;font-size: 30px;&quot;&gt;$$v_{a_5}$$" style="text;html=1;strokeColor=none;fillColor=none;align=center;verticalAlign=middle;whiteSpace=wrap;rounded=0;fontSize=30;fontFamily=Times New Roman;fontColor=default;" vertex="1" parent="1">
          <mxGeometry x="1504.3130303030302" y="96.47486486486487" width="60.60606060606062" height="37.29729729729729" as="geometry" />
        </mxCell>
        <mxCell id="czjufTqfxkIo00JqZaiN-152" value="&lt;br style=&quot;font-size: 30px;&quot;&gt;$$v_{a_{1003}}$$" style="text;html=1;strokeColor=none;fillColor=none;align=center;verticalAlign=middle;whiteSpace=wrap;rounded=0;fontSize=30;fontFamily=Times New Roman;fontColor=default;" vertex="1" parent="1">
          <mxGeometry x="1610.5397979797979" y="96.47864864864864" width="60.60606060606062" height="37.29729729729729" as="geometry" />
        </mxCell>
        <mxCell id="czjufTqfxkIo00JqZaiN-158" value="C" style="ellipse;whiteSpace=wrap;html=1;aspect=fixed;fontFamily=Times New Roman;fontSize=30;perimeterSpacing=1;strokeWidth=4;" vertex="1" parent="1">
          <mxGeometry x="1305.1009090909092" y="467.41810810810813" width="49" height="49" as="geometry" />
        </mxCell>
        <mxCell id="czjufTqfxkIo00JqZaiN-161" style="edgeStyle=none;shape=connector;rounded=0;orthogonalLoop=1;jettySize=auto;html=1;exitX=0.5;exitY=1;exitDx=0;exitDy=0;entryX=0.5;entryY=0;entryDx=0;entryDy=0;labelBackgroundColor=default;strokeColor=default;align=center;verticalAlign=middle;fontFamily=Times New Roman;fontSize=30;fontColor=default;endArrow=none;endFill=0;strokeWidth=4;" edge="1" parent="1" source="czjufTqfxkIo00JqZaiN-121" target="czjufTqfxkIo00JqZaiN-158">
          <mxGeometry relative="1" as="geometry" />
        </mxCell>
        <mxCell id="czjufTqfxkIo00JqZaiN-162" value="10" style="edgeLabel;html=1;align=center;verticalAlign=middle;resizable=0;points=[];fontSize=22;fontFamily=Times New Roman;fontColor=default;labelBackgroundColor=default;" vertex="1" connectable="0" parent="czjufTqfxkIo00JqZaiN-161">
          <mxGeometry x="0.2612" y="-1" relative="1" as="geometry">
            <mxPoint x="132" y="-48" as="offset" />
          </mxGeometry>
        </mxCell>
        <mxCell id="czjufTqfxkIo00JqZaiN-163" style="edgeStyle=none;shape=connector;rounded=0;orthogonalLoop=1;jettySize=auto;html=1;exitX=0.5;exitY=1;exitDx=0;exitDy=0;entryX=0.5;entryY=0;entryDx=0;entryDy=0;labelBackgroundColor=default;strokeColor=default;align=center;verticalAlign=middle;fontFamily=Times New Roman;fontSize=30;fontColor=default;endArrow=none;endFill=0;strokeWidth=4;" edge="1" parent="1" source="czjufTqfxkIo00JqZaiN-126" target="czjufTqfxkIo00JqZaiN-158">
          <mxGeometry relative="1" as="geometry" />
        </mxCell>
        <mxCell id="czjufTqfxkIo00JqZaiN-164" value="45" style="edgeLabel;html=1;align=center;verticalAlign=middle;resizable=0;points=[];fontSize=22;fontFamily=Times New Roman;fontColor=default;labelBackgroundColor=default;" vertex="1" connectable="0" parent="czjufTqfxkIo00JqZaiN-163">
          <mxGeometry x="-0.048" y="2" relative="1" as="geometry">
            <mxPoint x="-11" y="9" as="offset" />
          </mxGeometry>
        </mxCell>
        <mxCell id="czjufTqfxkIo00JqZaiN-165" value="C" style="ellipse;whiteSpace=wrap;html=1;aspect=fixed;fontFamily=Times New Roman;fontSize=30;strokeWidth=4;" vertex="1" parent="1">
          <mxGeometry x="1600.2780808080809" y="466.62810810810817" width="49" height="49" as="geometry" />
        </mxCell>
        <mxCell id="czjufTqfxkIo00JqZaiN-166" style="edgeStyle=none;shape=connector;rounded=0;orthogonalLoop=1;jettySize=auto;html=1;exitX=0.5;exitY=1;exitDx=0;exitDy=0;entryX=0.5;entryY=0;entryDx=0;entryDy=0;labelBackgroundColor=default;strokeColor=default;align=center;verticalAlign=middle;fontFamily=Times New Roman;fontSize=30;fontColor=default;endArrow=none;endFill=0;strokeWidth=4;" edge="1" parent="1" source="czjufTqfxkIo00JqZaiN-121" target="czjufTqfxkIo00JqZaiN-165">
          <mxGeometry relative="1" as="geometry" />
        </mxCell>
        <mxCell id="czjufTqfxkIo00JqZaiN-167" value="43" style="edgeLabel;html=1;align=center;verticalAlign=middle;resizable=0;points=[];fontSize=22;fontFamily=Times New Roman;fontColor=default;labelBackgroundColor=default;" vertex="1" connectable="0" parent="czjufTqfxkIo00JqZaiN-166">
          <mxGeometry x="-0.1104" y="-2" relative="1" as="geometry">
            <mxPoint as="offset" />
          </mxGeometry>
        </mxCell>
        <mxCell id="czjufTqfxkIo00JqZaiN-168" style="edgeStyle=none;shape=connector;rounded=0;orthogonalLoop=1;jettySize=auto;html=1;exitX=0.5;exitY=1;exitDx=0;exitDy=0;entryX=0.5;entryY=0;entryDx=0;entryDy=0;labelBackgroundColor=default;strokeColor=default;align=center;verticalAlign=middle;fontFamily=Times New Roman;fontSize=30;fontColor=default;endArrow=none;endFill=0;strokeWidth=4;" edge="1" parent="1" source="czjufTqfxkIo00JqZaiN-126" target="czjufTqfxkIo00JqZaiN-165">
          <mxGeometry relative="1" as="geometry" />
        </mxCell>
        <mxCell id="czjufTqfxkIo00JqZaiN-169" value="30" style="edgeLabel;html=1;align=center;verticalAlign=middle;resizable=0;points=[];fontSize=22;fontFamily=Times New Roman;fontColor=default;labelBackgroundColor=default;" vertex="1" connectable="0" parent="czjufTqfxkIo00JqZaiN-168">
          <mxGeometry x="-0.1833" y="1" relative="1" as="geometry">
            <mxPoint x="75" y="48" as="offset" />
          </mxGeometry>
        </mxCell>
        <mxCell id="czjufTqfxkIo00JqZaiN-170" value="C" style="ellipse;whiteSpace=wrap;html=1;aspect=fixed;fontFamily=Times New Roman;fontSize=30;strokeWidth=4;" vertex="1" parent="1">
          <mxGeometry x="1391.8167676767675" y="467.42135135135135" width="49" height="49" as="geometry" />
        </mxCell>
        <mxCell id="czjufTqfxkIo00JqZaiN-173" style="edgeStyle=none;shape=connector;rounded=0;orthogonalLoop=1;jettySize=auto;html=1;exitX=0.5;exitY=1;exitDx=0;exitDy=0;entryX=0.5;entryY=0;entryDx=0;entryDy=0;labelBackgroundColor=default;strokeColor=default;align=center;verticalAlign=middle;fontFamily=Times New Roman;fontSize=30;fontColor=default;endArrow=none;endFill=0;strokeWidth=4;" edge="1" parent="1" source="czjufTqfxkIo00JqZaiN-121" target="czjufTqfxkIo00JqZaiN-170">
          <mxGeometry relative="1" as="geometry" />
        </mxCell>
        <mxCell id="czjufTqfxkIo00JqZaiN-174" value="12" style="edgeLabel;html=1;align=center;verticalAlign=middle;resizable=0;points=[];fontSize=22;fontFamily=Times New Roman;fontColor=default;labelBackgroundColor=default;" vertex="1" connectable="0" parent="czjufTqfxkIo00JqZaiN-173">
          <mxGeometry x="0.6447" y="-1" relative="1" as="geometry">
            <mxPoint x="-1" y="-1" as="offset" />
          </mxGeometry>
        </mxCell>
        <mxCell id="czjufTqfxkIo00JqZaiN-175" style="edgeStyle=none;shape=connector;rounded=0;orthogonalLoop=1;jettySize=auto;html=1;exitX=0.5;exitY=1;exitDx=0;exitDy=0;entryX=0.5;entryY=0;entryDx=0;entryDy=0;labelBackgroundColor=default;strokeColor=default;align=center;verticalAlign=middle;fontFamily=Times New Roman;fontSize=30;fontColor=default;endArrow=none;endFill=0;strokeWidth=4;" edge="1" parent="1" source="czjufTqfxkIo00JqZaiN-126" target="czjufTqfxkIo00JqZaiN-170">
          <mxGeometry relative="1" as="geometry" />
        </mxCell>
        <mxCell id="czjufTqfxkIo00JqZaiN-176" value="63" style="edgeLabel;html=1;align=center;verticalAlign=middle;resizable=0;points=[];fontSize=22;fontFamily=Times New Roman;fontColor=default;labelBackgroundColor=default;" vertex="1" connectable="0" parent="czjufTqfxkIo00JqZaiN-175">
          <mxGeometry x="0.0769" y="3" relative="1" as="geometry">
            <mxPoint x="3" y="-8" as="offset" />
          </mxGeometry>
        </mxCell>
        <mxCell id="czjufTqfxkIo00JqZaiN-177" value="&lt;br style=&quot;font-size: 30px;&quot;&gt;$$v_{a_0}$$" style="text;html=1;strokeColor=none;fillColor=none;align=center;verticalAlign=middle;whiteSpace=wrap;rounded=0;fontSize=30;fontFamily=Times New Roman;fontColor=default;" vertex="1" parent="1">
          <mxGeometry x="1244.499393939394" y="107.69486486486487" width="60.60606060606062" height="37.29729729729729" as="geometry" />
        </mxCell>
        <mxCell id="czjufTqfxkIo00JqZaiN-178" value="&lt;br style=&quot;font-size: 30px;&quot;&gt;$$v_{a_1}$$" style="text;html=1;strokeColor=none;fillColor=none;align=center;verticalAlign=middle;whiteSpace=wrap;rounded=0;fontSize=30;fontFamily=Times New Roman;fontColor=default;" vertex="1" parent="1">
          <mxGeometry x="1381.02" y="267.48" width="56.16" height="25.3" as="geometry" />
        </mxCell>
        <mxCell id="czjufTqfxkIo00JqZaiN-179" value="&lt;br style=&quot;font-size: 30px;&quot;&gt;$$v_{b_1}$$" style="text;html=1;strokeColor=none;fillColor=none;align=center;verticalAlign=middle;whiteSpace=wrap;rounded=0;fontSize=30;fontFamily=Times New Roman;fontColor=default;" vertex="1" parent="1">
          <mxGeometry x="1619.9006060606062" y="262.47972972972974" width="60.60606060606062" height="37.29729729729729" as="geometry" />
        </mxCell>
        <mxCell id="czjufTqfxkIo00JqZaiN-181" value="&lt;br style=&quot;font-size: 30px;&quot;&gt;$$v_{c_1}$$" style="text;html=1;strokeColor=none;fillColor=none;align=center;verticalAlign=middle;whiteSpace=wrap;rounded=0;fontSize=30;fontFamily=Times New Roman;fontColor=default;perimeterSpacing=2;" vertex="1" parent="1">
          <mxGeometry x="1299.3" y="494.63000000000005" width="60.61" height="41" as="geometry" />
        </mxCell>
        <mxCell id="czjufTqfxkIo00JqZaiN-182" value="&lt;br style=&quot;font-size: 30px;&quot;&gt;$$v_{c_2}$$" style="text;html=1;strokeColor=none;fillColor=none;align=center;verticalAlign=middle;whiteSpace=wrap;rounded=0;fontSize=30;fontFamily=Times New Roman;fontColor=default;" vertex="1" parent="1">
          <mxGeometry x="1386.0151515151515" y="494.6329729729728" width="60.60606060606062" height="37.29729729729729" as="geometry" />
        </mxCell>
        <mxCell id="czjufTqfxkIo00JqZaiN-183" value="&lt;br style=&quot;font-size: 30px;&quot;&gt;$$v_{c_3}$$" style="text;html=1;strokeColor=none;fillColor=none;align=center;verticalAlign=middle;whiteSpace=wrap;rounded=0;fontSize=30;fontFamily=Times New Roman;fontColor=default;" vertex="1" parent="1">
          <mxGeometry x="1594.4762626262627" y="496.4829729729731" width="60.60606060606062" height="37.29729729729729" as="geometry" />
        </mxCell>
        <mxCell id="czjufTqfxkIo00JqZaiN-184" value="A" style="ellipse;whiteSpace=wrap;html=1;aspect=fixed;fontFamily=Times New Roman;fontSize=30;strokeWidth=4;" vertex="1" parent="1">
          <mxGeometry x="1497.7825252525254" y="467.41810810810813" width="49" height="49" as="geometry" />
        </mxCell>
        <mxCell id="czjufTqfxkIo00JqZaiN-185" style="edgeStyle=none;shape=connector;rounded=0;orthogonalLoop=1;jettySize=auto;html=1;exitX=0.5;exitY=1;exitDx=0;exitDy=0;entryX=0.5;entryY=0;entryDx=0;entryDy=0;labelBackgroundColor=default;strokeColor=default;align=center;verticalAlign=middle;fontFamily=Times New Roman;fontSize=30;fontColor=default;endArrow=none;endFill=0;strokeWidth=4;" edge="1" parent="1" source="czjufTqfxkIo00JqZaiN-121" target="czjufTqfxkIo00JqZaiN-184">
          <mxGeometry relative="1" as="geometry" />
        </mxCell>
        <mxCell id="czjufTqfxkIo00JqZaiN-186" value="45" style="edgeLabel;html=1;align=center;verticalAlign=middle;resizable=0;points=[];fontSize=22;fontFamily=Times New Roman;fontColor=default;labelBackgroundColor=default;" vertex="1" connectable="0" parent="czjufTqfxkIo00JqZaiN-185">
          <mxGeometry x="-0.1274" y="1" relative="1" as="geometry">
            <mxPoint x="-76" y="42" as="offset" />
          </mxGeometry>
        </mxCell>
        <mxCell id="czjufTqfxkIo00JqZaiN-187" style="edgeStyle=none;shape=connector;rounded=0;orthogonalLoop=1;jettySize=auto;html=1;exitX=0.5;exitY=1;exitDx=0;exitDy=0;entryX=0.5;entryY=0;entryDx=0;entryDy=0;labelBackgroundColor=default;strokeColor=default;align=center;verticalAlign=middle;fontFamily=Times New Roman;fontSize=30;fontColor=default;endArrow=none;endFill=0;strokeWidth=4;" edge="1" parent="1" source="czjufTqfxkIo00JqZaiN-126" target="czjufTqfxkIo00JqZaiN-184">
          <mxGeometry relative="1" as="geometry" />
        </mxCell>
        <mxCell id="czjufTqfxkIo00JqZaiN-188" value="34" style="edgeLabel;html=1;align=center;verticalAlign=middle;resizable=0;points=[];fontSize=22;fontFamily=Times New Roman;fontColor=default;labelBackgroundColor=default;" vertex="1" connectable="0" parent="czjufTqfxkIo00JqZaiN-187">
          <mxGeometry x="-0.2207" y="1" relative="1" as="geometry">
            <mxPoint x="-8" y="-9" as="offset" />
          </mxGeometry>
        </mxCell>
        <mxCell id="czjufTqfxkIo00JqZaiN-189" value="&lt;br style=&quot;font-size: 30px;&quot;&gt;$$v_{a_2}$$" style="text;html=1;strokeColor=none;fillColor=none;align=center;verticalAlign=middle;whiteSpace=wrap;rounded=0;fontSize=30;fontFamily=Times New Roman;fontColor=default;" vertex="1" parent="1">
          <mxGeometry x="1497.78" y="500.12999999999994" width="60.61" height="30" as="geometry" />
        </mxCell>
        <mxCell id="czjufTqfxkIo00JqZaiN-190" value="A" style="ellipse;whiteSpace=wrap;html=1;aspect=fixed;fontFamily=Times New Roman;fontSize=30;strokeWidth=4;" vertex="1" parent="1">
          <mxGeometry x="1706.1041414141414" y="466.62810810810817" width="49" height="49" as="geometry" />
        </mxCell>
        <mxCell id="czjufTqfxkIo00JqZaiN-191" style="edgeStyle=none;shape=connector;rounded=0;orthogonalLoop=1;jettySize=auto;html=1;exitX=0.5;exitY=1;exitDx=0;exitDy=0;entryX=0.5;entryY=0;entryDx=0;entryDy=0;labelBackgroundColor=default;strokeColor=default;align=center;verticalAlign=middle;fontFamily=Times New Roman;fontSize=30;fontColor=default;endArrow=none;endFill=0;strokeWidth=4;" edge="1" parent="1" source="czjufTqfxkIo00JqZaiN-121" target="czjufTqfxkIo00JqZaiN-190">
          <mxGeometry relative="1" as="geometry" />
        </mxCell>
        <mxCell id="czjufTqfxkIo00JqZaiN-192" value="23" style="edgeLabel;html=1;align=center;verticalAlign=middle;resizable=0;points=[];fontSize=22;fontFamily=Times New Roman;fontColor=default;labelBackgroundColor=default;" vertex="1" connectable="0" parent="czjufTqfxkIo00JqZaiN-191">
          <mxGeometry x="-0.3137" y="-1" relative="1" as="geometry">
            <mxPoint as="offset" />
          </mxGeometry>
        </mxCell>
        <mxCell id="czjufTqfxkIo00JqZaiN-193" style="edgeStyle=none;shape=connector;rounded=0;orthogonalLoop=1;jettySize=auto;html=1;exitX=0.5;exitY=1;exitDx=0;exitDy=0;entryX=0.5;entryY=0;entryDx=0;entryDy=0;labelBackgroundColor=default;strokeColor=default;align=center;verticalAlign=middle;fontFamily=Times New Roman;fontSize=30;fontColor=default;endArrow=none;endFill=0;strokeWidth=4;" edge="1" parent="1" source="czjufTqfxkIo00JqZaiN-126" target="czjufTqfxkIo00JqZaiN-190">
          <mxGeometry relative="1" as="geometry" />
        </mxCell>
        <mxCell id="czjufTqfxkIo00JqZaiN-194" value="30" style="edgeLabel;html=1;align=center;verticalAlign=middle;resizable=0;points=[];fontSize=22;fontFamily=Times New Roman;fontColor=default;labelBackgroundColor=default;" vertex="1" connectable="0" parent="czjufTqfxkIo00JqZaiN-193">
          <mxGeometry x="-0.431" y="4" relative="1" as="geometry">
            <mxPoint x="147" y="65" as="offset" />
          </mxGeometry>
        </mxCell>
        <mxCell id="czjufTqfxkIo00JqZaiN-195" style="edgeStyle=orthogonalEdgeStyle;rounded=0;orthogonalLoop=1;jettySize=auto;html=1;exitX=0.5;exitY=1;exitDx=0;exitDy=0;fontFamily=Times New Roman;fontSize=30;" edge="1" parent="1" source="czjufTqfxkIo00JqZaiN-177" target="czjufTqfxkIo00JqZaiN-177">
          <mxGeometry relative="1" as="geometry" />
        </mxCell>
        <mxCell id="czjufTqfxkIo00JqZaiN-196" style="edgeStyle=orthogonalEdgeStyle;rounded=0;orthogonalLoop=1;jettySize=auto;html=1;exitX=0.5;exitY=1;exitDx=0;exitDy=0;" edge="1" parent="1">
          <mxGeometry relative="1" as="geometry">
            <mxPoint x="1239.997171717172" y="533.7802702702702" as="sourcePoint" />
            <mxPoint x="1239.997171717172" y="533.7802702702702" as="targetPoint" />
          </mxGeometry>
        </mxCell>
      </root>
    </mxGraphModel>
  </diagram>
</mxfile>
